<svg xmlns="http://www.w3.org/2000/svg" xmlns:xlink="http://www.w3.org/1999/xlink" width="40" zoomAndPan="magnify" viewBox="0 0 30 30.000001" height="40" preserveAspectRatio="xMidYMid meet" version="1.0"><defs><clipPath id="245e76568f"><path d="M 10 3 L 29 3 L 29 28 L 10 28 Z M 10 3 " clip-rule="nonzero"/></clipPath><clipPath id="8eae54c9e8"><path d="M 22.386719 1.476562 L 30.238281 6.097656 L 16.734375 29.042969 L 8.878906 24.421875 Z M 22.386719 1.476562 " clip-rule="nonzero"/></clipPath><clipPath id="5e74abf39c"><path d="M 26.3125 3.785156 C 27.355469 4.398438 28.109375 5.402344 28.414062 6.570312 C 28.714844 7.742188 28.539062 8.984375 27.929688 10.023438 L 19.050781 25.105469 C 18.4375 26.148438 17.433594 26.902344 16.265625 27.207031 C 15.09375 27.507812 13.851562 27.335938 12.8125 26.722656 C 11.769531 26.109375 11.015625 25.105469 10.710938 23.9375 C 10.410156 22.769531 10.582031 21.523438 11.195312 20.484375 L 20.074219 5.402344 C 20.6875 4.359375 21.6875 3.605469 22.859375 3.300781 C 24.027344 3 25.269531 3.171875 26.3125 3.785156 Z M 26.3125 3.785156 " clip-rule="nonzero"/></clipPath><clipPath id="8fd56d578e"><path d="M 0.238281 0 L 18.820312 0 L 18.820312 24.640625 L 0.238281 24.640625 Z M 0.238281 0 " clip-rule="nonzero"/></clipPath><clipPath id="e6b6ee34a8"><path d="M 12.386719 -1.523438 L 20.238281 3.097656 L 6.734375 26.042969 L -1.121094 21.421875 Z M 12.386719 -1.523438 " clip-rule="nonzero"/></clipPath><clipPath id="b889280e13"><path d="M 16.3125 0.785156 C 17.355469 1.398438 18.109375 2.402344 18.414062 3.570312 C 18.714844 4.742188 18.539062 5.984375 17.929688 7.023438 L 9.050781 22.105469 C 8.4375 23.148438 7.433594 23.902344 6.265625 24.207031 C 5.09375 24.507812 3.851562 24.335938 2.8125 23.722656 C 1.769531 23.109375 1.015625 22.105469 0.710938 20.9375 C 0.410156 19.769531 0.582031 18.523438 1.195312 17.484375 L 10.074219 2.402344 C 10.6875 1.359375 11.6875 0.605469 12.859375 0.300781 C 14.027344 0 15.269531 0.171875 16.3125 0.785156 Z M 16.3125 0.785156 " clip-rule="nonzero"/></clipPath><clipPath id="b54de3c99c"><rect x="0" width="19" y="0" height="25"/></clipPath><clipPath id="b90690a75b"><path d="M 1.34375 3.132812 L 10.734375 3.132812 L 10.734375 12.519531 L 1.34375 12.519531 Z M 1.34375 3.132812 " clip-rule="nonzero"/></clipPath><clipPath id="025b003a56"><path d="M 6.039062 3.132812 C 3.445312 3.132812 1.34375 5.234375 1.34375 7.828125 C 1.34375 10.417969 3.445312 12.519531 6.039062 12.519531 C 8.632812 12.519531 10.734375 10.417969 10.734375 7.828125 C 10.734375 5.234375 8.632812 3.132812 6.039062 3.132812 Z M 6.039062 3.132812 " clip-rule="nonzero"/></clipPath><clipPath id="6cf570b600"><path d="M 0.34375 0.132812 L 9.734375 0.132812 L 9.734375 9.519531 L 0.34375 9.519531 Z M 0.34375 0.132812 " clip-rule="nonzero"/></clipPath><clipPath id="bc60836806"><path d="M 5.039062 0.132812 C 2.445312 0.132812 0.34375 2.234375 0.34375 4.828125 C 0.34375 7.417969 2.445312 9.519531 5.039062 9.519531 C 7.632812 9.519531 9.734375 7.417969 9.734375 4.828125 C 9.734375 2.234375 7.632812 0.132812 5.039062 0.132812 Z M 5.039062 0.132812 " clip-rule="nonzero"/></clipPath><clipPath id="4c278799e2"><rect x="0" width="10" y="0" height="10"/></clipPath></defs><g clip-path="url(#245e76568f)"><g clip-path="url(#8eae54c9e8)"><g clip-path="url(#5e74abf39c)"><g transform="matrix(1, 0, 0, 1, 10, 3)"><g clip-path="url(#b54de3c99c)"><g clip-path="url(#8fd56d578e)"><g clip-path="url(#e6b6ee34a8)"><g clip-path="url(#b889280e13)"><path fill="#99c5ff" d="M 12.386719 -1.523438 L 20.238281 3.097656 L 6.734375 26.042969 L -1.121094 21.421875 Z M 12.386719 -1.523438 " fill-opacity="1" fill-rule="nonzero"/></g></g></g></g></g></g></g></g><g clip-path="url(#b90690a75b)"><g clip-path="url(#025b003a56)"><g transform="matrix(1, 0, 0, 1, 1, 3)"><g clip-path="url(#4c278799e2)"><g clip-path="url(#6cf570b600)"><g clip-path="url(#bc60836806)"><path fill="#004aad" d="M 0.34375 0.132812 L 9.734375 0.132812 L 9.734375 9.519531 L 0.34375 9.519531 Z M 0.34375 0.132812 " fill-opacity="1" fill-rule="nonzero"/></g></g></g></g></g></g></svg>