<svg xmlns="http://www.w3.org/2000/svg" xmlns:xlink="http://www.w3.org/1999/xlink" width="168" zoomAndPan="magnify" viewBox="0 0 126 32.249999" height="43" preserveAspectRatio="xMidYMid meet" version="1.0"><defs><g/><clipPath id="79f1583424"><path d="M 4 2 L 32 2 L 32 29.761719 L 4 29.761719 Z M 4 2 " clip-rule="nonzero"/></clipPath><clipPath id="d2589ba7dc"><path d="M 28 6 L 33.167969 6 L 33.167969 12 L 28 12 Z M 28 6 " clip-rule="nonzero"/></clipPath><clipPath id="2a176e51b6"><path d="M 74 7 L 84.644531 7 L 84.644531 17 L 74 17 Z M 74 7 " clip-rule="nonzero"/></clipPath><clipPath id="2d26680ce2"><rect x="0" width="85" y="0" height="21"/></clipPath><clipPath id="fcf05b72f5"><path d="M 0.0546875 0.046875 L 3 0.046875 L 3 4 L 0.0546875 4 Z M 0.0546875 0.046875 " clip-rule="nonzero"/></clipPath><clipPath id="cbb99b5c5b"><path d="M 3 0.046875 L 6 0.046875 L 6 4 L 3 4 Z M 3 0.046875 " clip-rule="nonzero"/></clipPath><clipPath id="f1a08944bf"><path d="M 6 0.046875 L 9 0.046875 L 9 4 L 6 4 Z M 6 0.046875 " clip-rule="nonzero"/></clipPath><clipPath id="9bfa1af4dd"><path d="M 10 0.046875 L 13 0.046875 L 13 4 L 10 4 Z M 10 0.046875 " clip-rule="nonzero"/></clipPath><clipPath id="205ee85b2c"><path d="M 14 0.046875 L 17 0.046875 L 17 4 L 14 4 Z M 14 0.046875 " clip-rule="nonzero"/></clipPath><clipPath id="bdc1dee597"><path d="M 17 0.046875 L 21 0.046875 L 21 4 L 17 4 Z M 17 0.046875 " clip-rule="nonzero"/></clipPath><clipPath id="9c0e44e8fd"><path d="M 21 0.046875 L 24 0.046875 L 24 4 L 21 4 Z M 21 0.046875 " clip-rule="nonzero"/></clipPath><clipPath id="48c77349be"><path d="M 24 0.046875 L 28 0.046875 L 28 4 L 24 4 Z M 24 0.046875 " clip-rule="nonzero"/></clipPath><clipPath id="62bb0bac6e"><path d="M 28 0.046875 L 31 0.046875 L 31 4 L 28 4 Z M 28 0.046875 " clip-rule="nonzero"/></clipPath><clipPath id="64d40de91d"><path d="M 32 0.046875 L 35 0.046875 L 35 4 L 32 4 Z M 32 0.046875 " clip-rule="nonzero"/></clipPath><clipPath id="ffe116fc79"><rect x="0" width="36" y="0" height="5"/></clipPath></defs><g clip-path="url(#79f1583424)"><path fill="#5e17eb" d="M 29.859375 17.699219 C 28.65625 20.160156 26.421875 21.808594 24.15625 21.902344 C 21.988281 21.992188 20.65625 21.175781 19.921875 20.46875 C 18.710938 19.316406 18.113281 17.601562 18.113281 15.375 C 18.113281 13.742188 16.777344 12.40625 15.136719 12.40625 C 13.320312 12.40625 11.878906 14.050781 12.210938 15.917969 C 12.417969 17.082031 13.335938 18.035156 14.496094 18.285156 C 14.863281 18.359375 15.230469 18.375 15.578125 18.316406 C 16.421875 18.191406 17.238281 18.683594 17.597656 19.449219 C 17.605469 19.46875 17.605469 19.476562 17.613281 19.484375 C 18.195312 20.710938 17.4375 22.167969 16.09375 22.351562 C 15.269531 22.460938 14.410156 22.425781 13.5625 22.242188 C 10.71875 21.609375 8.535156 19.199219 8.160156 16.308594 C 7.59375 12.015625 10.9375 8.339844 15.128906 8.339844 C 19.003906 8.339844 22.164062 11.5 22.164062 15.375 C 22.164062 16.410156 22.363281 17.191406 22.722656 17.535156 C 22.964844 17.757812 23.378906 17.867188 23.980469 17.84375 C 24.507812 17.816406 25.40625 17.566406 26.382812 16.023438 C 27.507812 14.25 28.058594 7.796875 22.320312 4.097656 C 19.613281 2.347656 16.203125 1.9375 13.160156 3.003906 C 7.703125 4.929688 3.851562 10.28125 4.226562 16.484375 C 4.625 23.144531 9.992188 28.570312 16.652344 29.027344 C 24.488281 29.570312 31.007812 23.378906 31.007812 15.660156 C 31.007812 15.183594 30.984375 14.714844 30.933594 14.257812 C 30.707031 15.824219 30.199219 16.992188 29.859375 17.699219 Z M 29.859375 17.699219 " fill-opacity="1" fill-rule="nonzero"/></g><g clip-path="url(#d2589ba7dc)"><path fill="#5e17eb" d="M 33.191406 8.808594 C 33.191406 9.144531 33.128906 9.46875 33 9.78125 C 32.867188 10.089844 32.683594 10.367188 32.445312 10.605469 C 32.207031 10.84375 31.933594 11.027344 31.621094 11.15625 C 31.3125 11.285156 30.988281 11.347656 30.648438 11.347656 C 30.3125 11.347656 29.988281 11.285156 29.675781 11.15625 C 29.363281 11.027344 29.089844 10.84375 28.851562 10.605469 C 28.613281 10.367188 28.429688 10.089844 28.300781 9.78125 C 28.171875 9.46875 28.105469 9.144531 28.105469 8.808594 C 28.105469 8.46875 28.171875 8.144531 28.300781 7.832031 C 28.429688 7.523438 28.613281 7.246094 28.851562 7.007812 C 29.089844 6.769531 29.363281 6.585938 29.675781 6.457031 C 29.988281 6.328125 30.3125 6.265625 30.648438 6.265625 C 30.988281 6.265625 31.3125 6.328125 31.621094 6.457031 C 31.933594 6.585938 32.207031 6.769531 32.445312 7.007812 C 32.683594 7.246094 32.867188 7.523438 33 7.832031 C 33.128906 8.144531 33.191406 8.46875 33.191406 8.808594 Z M 33.191406 8.808594 " fill-opacity="1" fill-rule="nonzero"/></g><g transform="matrix(1, 0, 0, 1, 35, 5)"><g clip-path="url(#2d26680ce2)"><g fill="#000000" fill-opacity="1"><g transform="translate(0.865399, 16.499959)"><g><path d="M 0.984375 -8.71875 L 4.03125 -8.71875 L 4.03125 0 L 0.984375 0 Z M 2.5 -9.671875 C 1.945312 -9.671875 1.5 -9.828125 1.15625 -10.140625 C 0.8125 -10.453125 0.640625 -10.835938 0.640625 -11.296875 C 0.640625 -11.765625 0.8125 -12.148438 1.15625 -12.453125 C 1.5 -12.765625 1.945312 -12.921875 2.5 -12.921875 C 3.0625 -12.921875 3.515625 -12.773438 3.859375 -12.484375 C 4.203125 -12.191406 4.375 -11.8125 4.375 -11.34375 C 4.375 -10.863281 4.203125 -10.460938 3.859375 -10.140625 C 3.515625 -9.828125 3.0625 -9.671875 2.5 -9.671875 Z M 2.5 -9.671875 "/></g></g></g><g fill="#000000" fill-opacity="1"><g transform="translate(4.257445, 16.499959)"><g><path d="M 6.65625 -8.859375 C 7.738281 -8.859375 8.609375 -8.535156 9.265625 -7.890625 C 9.929688 -7.253906 10.265625 -6.285156 10.265625 -4.984375 L 10.265625 0 L 7.203125 0 L 7.203125 -4.484375 C 7.203125 -5.671875 6.722656 -6.265625 5.765625 -6.265625 C 5.242188 -6.265625 4.820312 -6.09375 4.5 -5.75 C 4.1875 -5.40625 4.03125 -4.894531 4.03125 -4.21875 L 4.03125 0 L 0.984375 0 L 0.984375 -8.71875 L 3.890625 -8.71875 L 3.890625 -7.765625 C 4.234375 -8.117188 4.640625 -8.390625 5.109375 -8.578125 C 5.585938 -8.765625 6.101562 -8.859375 6.65625 -8.859375 Z M 6.65625 -8.859375 "/></g></g></g><g fill="#000000" fill-opacity="1"><g transform="translate(13.80662, 16.499959)"><g><path d="M 7 -0.359375 C 6.738281 -0.191406 6.421875 -0.0664062 6.046875 0.015625 C 5.679688 0.0976562 5.289062 0.140625 4.875 0.140625 C 3.738281 0.140625 2.863281 -0.132812 2.25 -0.6875 C 1.632812 -1.25 1.328125 -2.082031 1.328125 -3.1875 L 1.328125 -6.109375 L 0.0625 -6.109375 L 0.0625 -8.390625 L 1.328125 -8.390625 L 1.328125 -10.65625 L 4.390625 -10.65625 L 4.390625 -8.390625 L 6.390625 -8.390625 L 6.390625 -6.109375 L 4.390625 -6.109375 L 4.390625 -3.21875 C 4.390625 -2.90625 4.472656 -2.660156 4.640625 -2.484375 C 4.804688 -2.304688 5.03125 -2.21875 5.3125 -2.21875 C 5.664062 -2.21875 5.972656 -2.304688 6.234375 -2.484375 Z M 7 -0.359375 "/></g></g></g><g fill="#000000" fill-opacity="1"><g transform="translate(19.352856, 16.499959)"><g><path d="M 9.890625 -4.34375 C 9.890625 -4.320312 9.875 -4.066406 9.84375 -3.578125 L 3.5 -3.578125 C 3.632812 -3.128906 3.882812 -2.785156 4.25 -2.546875 C 4.625 -2.304688 5.085938 -2.1875 5.640625 -2.1875 C 6.054688 -2.1875 6.414062 -2.242188 6.71875 -2.359375 C 7.03125 -2.484375 7.34375 -2.675781 7.65625 -2.9375 L 9.265625 -1.265625 C 8.410156 -0.328125 7.171875 0.140625 5.546875 0.140625 C 4.523438 0.140625 3.628906 -0.0507812 2.859375 -0.4375 C 2.085938 -0.820312 1.488281 -1.359375 1.0625 -2.046875 C 0.644531 -2.734375 0.4375 -3.507812 0.4375 -4.375 C 0.4375 -5.226562 0.640625 -5.992188 1.046875 -6.671875 C 1.460938 -7.359375 2.035156 -7.894531 2.765625 -8.28125 C 3.492188 -8.664062 4.3125 -8.859375 5.21875 -8.859375 C 6.09375 -8.859375 6.882812 -8.675781 7.59375 -8.3125 C 8.300781 -7.957031 8.859375 -7.4375 9.265625 -6.75 C 9.679688 -6.070312 9.890625 -5.269531 9.890625 -4.34375 Z M 5.234375 -6.6875 C 4.765625 -6.6875 4.367188 -6.550781 4.046875 -6.28125 C 3.734375 -6.019531 3.535156 -5.65625 3.453125 -5.1875 L 7.03125 -5.1875 C 6.9375 -5.65625 6.734375 -6.019531 6.421875 -6.28125 C 6.109375 -6.550781 5.710938 -6.6875 5.234375 -6.6875 Z M 5.234375 -6.6875 "/></g></g></g><g fill="#000000" fill-opacity="1"><g transform="translate(28.033923, 16.499959)"><g><path d="M 0.984375 -11.9375 L 4.03125 -11.9375 L 4.03125 0 L 0.984375 0 Z M 0.984375 -11.9375 "/></g></g></g><g fill="#000000" fill-opacity="1"><g transform="translate(31.42597, 16.499959)"><g><path d="M 0.984375 -11.9375 L 4.03125 -11.9375 L 4.03125 0 L 0.984375 0 Z M 0.984375 -11.9375 "/></g></g></g><g fill="#000000" fill-opacity="1"><g transform="translate(34.818016, 16.499959)"><g><path d="M 0.984375 -8.71875 L 4.03125 -8.71875 L 4.03125 0 L 0.984375 0 Z M 2.5 -9.671875 C 1.945312 -9.671875 1.5 -9.828125 1.15625 -10.140625 C 0.8125 -10.453125 0.640625 -10.835938 0.640625 -11.296875 C 0.640625 -11.765625 0.8125 -12.148438 1.15625 -12.453125 C 1.5 -12.765625 1.945312 -12.921875 2.5 -12.921875 C 3.0625 -12.921875 3.515625 -12.773438 3.859375 -12.484375 C 4.203125 -12.191406 4.375 -11.8125 4.375 -11.34375 C 4.375 -10.863281 4.203125 -10.460938 3.859375 -10.140625 C 3.515625 -9.828125 3.0625 -9.671875 2.5 -9.671875 Z M 2.5 -9.671875 "/></g></g></g><g fill="#000000" fill-opacity="1"><g transform="translate(38.210063, 16.499959)"><g><path d="M 10.359375 -8.71875 L 10.359375 -1.59375 C 10.359375 0.03125 9.914062 1.242188 9.03125 2.046875 C 8.15625 2.859375 6.890625 3.265625 5.234375 3.265625 C 4.378906 3.265625 3.578125 3.164062 2.828125 2.96875 C 2.078125 2.78125 1.441406 2.5 0.921875 2.125 L 2.03125 -0.015625 C 2.382812 0.273438 2.832031 0.503906 3.375 0.671875 C 3.914062 0.835938 4.445312 0.921875 4.96875 0.921875 C 5.769531 0.921875 6.359375 0.742188 6.734375 0.390625 C 7.109375 0.0351562 7.296875 -0.488281 7.296875 -1.1875 L 7.296875 -1.484375 C 6.710938 -0.796875 5.847656 -0.453125 4.703125 -0.453125 C 3.929688 -0.453125 3.21875 -0.625 2.5625 -0.96875 C 1.914062 -1.320312 1.398438 -1.816406 1.015625 -2.453125 C 0.628906 -3.085938 0.4375 -3.820312 0.4375 -4.65625 C 0.4375 -5.488281 0.628906 -6.222656 1.015625 -6.859375 C 1.398438 -7.492188 1.914062 -7.984375 2.5625 -8.328125 C 3.21875 -8.679688 3.929688 -8.859375 4.703125 -8.859375 C 5.953125 -8.859375 6.863281 -8.457031 7.4375 -7.65625 L 7.4375 -8.71875 Z M 5.4375 -2.875 C 5.976562 -2.875 6.425781 -3.039062 6.78125 -3.375 C 7.144531 -3.707031 7.328125 -4.132812 7.328125 -4.65625 C 7.328125 -5.1875 7.148438 -5.613281 6.796875 -5.9375 C 6.441406 -6.269531 5.988281 -6.4375 5.4375 -6.4375 C 4.875 -6.4375 4.410156 -6.269531 4.046875 -5.9375 C 3.691406 -5.613281 3.515625 -5.1875 3.515625 -4.65625 C 3.515625 -4.132812 3.695312 -3.707031 4.0625 -3.375 C 4.425781 -3.039062 4.882812 -2.875 5.4375 -2.875 Z M 5.4375 -2.875 "/></g></g></g><g fill="#000000" fill-opacity="1"><g transform="translate(47.903924, 16.499959)"><g><path d="M 9.890625 -4.34375 C 9.890625 -4.320312 9.875 -4.066406 9.84375 -3.578125 L 3.5 -3.578125 C 3.632812 -3.128906 3.882812 -2.785156 4.25 -2.546875 C 4.625 -2.304688 5.085938 -2.1875 5.640625 -2.1875 C 6.054688 -2.1875 6.414062 -2.242188 6.71875 -2.359375 C 7.03125 -2.484375 7.34375 -2.675781 7.65625 -2.9375 L 9.265625 -1.265625 C 8.410156 -0.328125 7.171875 0.140625 5.546875 0.140625 C 4.523438 0.140625 3.628906 -0.0507812 2.859375 -0.4375 C 2.085938 -0.820312 1.488281 -1.359375 1.0625 -2.046875 C 0.644531 -2.734375 0.4375 -3.507812 0.4375 -4.375 C 0.4375 -5.226562 0.640625 -5.992188 1.046875 -6.671875 C 1.460938 -7.359375 2.035156 -7.894531 2.765625 -8.28125 C 3.492188 -8.664062 4.3125 -8.859375 5.21875 -8.859375 C 6.09375 -8.859375 6.882812 -8.675781 7.59375 -8.3125 C 8.300781 -7.957031 8.859375 -7.4375 9.265625 -6.75 C 9.679688 -6.070312 9.890625 -5.269531 9.890625 -4.34375 Z M 5.234375 -6.6875 C 4.765625 -6.6875 4.367188 -6.550781 4.046875 -6.28125 C 3.734375 -6.019531 3.535156 -5.65625 3.453125 -5.1875 L 7.03125 -5.1875 C 6.9375 -5.65625 6.734375 -6.019531 6.421875 -6.28125 C 6.109375 -6.550781 5.710938 -6.6875 5.234375 -6.6875 Z M 5.234375 -6.6875 "/></g></g></g><g fill="#000000" fill-opacity="1"><g transform="translate(56.584991, 16.499959)"><g><path d="M 6.65625 -8.859375 C 7.738281 -8.859375 8.609375 -8.535156 9.265625 -7.890625 C 9.929688 -7.253906 10.265625 -6.285156 10.265625 -4.984375 L 10.265625 0 L 7.203125 0 L 7.203125 -4.484375 C 7.203125 -5.671875 6.722656 -6.265625 5.765625 -6.265625 C 5.242188 -6.265625 4.820312 -6.09375 4.5 -5.75 C 4.1875 -5.40625 4.03125 -4.894531 4.03125 -4.21875 L 4.03125 0 L 0.984375 0 L 0.984375 -8.71875 L 3.890625 -8.71875 L 3.890625 -7.765625 C 4.234375 -8.117188 4.640625 -8.390625 5.109375 -8.578125 C 5.585938 -8.765625 6.101562 -8.859375 6.65625 -8.859375 Z M 6.65625 -8.859375 "/></g></g></g><g fill="#000000" fill-opacity="1"><g transform="translate(66.134166, 16.499959)"><g><path d="M 5.4375 0.140625 C 4.46875 0.140625 3.601562 -0.0507812 2.84375 -0.4375 C 2.082031 -0.820312 1.488281 -1.359375 1.0625 -2.046875 C 0.644531 -2.734375 0.4375 -3.507812 0.4375 -4.375 C 0.4375 -5.238281 0.644531 -6.007812 1.0625 -6.6875 C 1.488281 -7.375 2.082031 -7.90625 2.84375 -8.28125 C 3.601562 -8.664062 4.46875 -8.859375 5.4375 -8.859375 C 6.414062 -8.859375 7.265625 -8.644531 7.984375 -8.21875 C 8.703125 -7.800781 9.210938 -7.21875 9.515625 -6.46875 L 7.15625 -5.25 C 6.757812 -6.039062 6.179688 -6.4375 5.421875 -6.4375 C 4.867188 -6.4375 4.410156 -6.253906 4.046875 -5.890625 C 3.691406 -5.523438 3.515625 -5.019531 3.515625 -4.375 C 3.515625 -3.71875 3.691406 -3.203125 4.046875 -2.828125 C 4.410156 -2.460938 4.867188 -2.28125 5.421875 -2.28125 C 6.179688 -2.28125 6.757812 -2.671875 7.15625 -3.453125 L 9.515625 -2.25 C 9.210938 -1.5 8.703125 -0.910156 7.984375 -0.484375 C 7.265625 -0.0664062 6.414062 0.140625 5.4375 0.140625 Z M 5.4375 0.140625 "/></g></g></g><g clip-path="url(#2a176e51b6)"><g fill="#000000" fill-opacity="1"><g transform="translate(74.188268, 16.499959)"><g><path d="M 9.890625 -4.34375 C 9.890625 -4.320312 9.875 -4.066406 9.84375 -3.578125 L 3.5 -3.578125 C 3.632812 -3.128906 3.882812 -2.785156 4.25 -2.546875 C 4.625 -2.304688 5.085938 -2.1875 5.640625 -2.1875 C 6.054688 -2.1875 6.414062 -2.242188 6.71875 -2.359375 C 7.03125 -2.484375 7.34375 -2.675781 7.65625 -2.9375 L 9.265625 -1.265625 C 8.410156 -0.328125 7.171875 0.140625 5.546875 0.140625 C 4.523438 0.140625 3.628906 -0.0507812 2.859375 -0.4375 C 2.085938 -0.820312 1.488281 -1.359375 1.0625 -2.046875 C 0.644531 -2.734375 0.4375 -3.507812 0.4375 -4.375 C 0.4375 -5.226562 0.640625 -5.992188 1.046875 -6.671875 C 1.460938 -7.359375 2.035156 -7.894531 2.765625 -8.28125 C 3.492188 -8.664062 4.3125 -8.859375 5.21875 -8.859375 C 6.09375 -8.859375 6.882812 -8.675781 7.59375 -8.3125 C 8.300781 -7.957031 8.859375 -7.4375 9.265625 -6.75 C 9.679688 -6.070312 9.890625 -5.269531 9.890625 -4.34375 Z M 5.234375 -6.6875 C 4.765625 -6.6875 4.367188 -6.550781 4.046875 -6.28125 C 3.734375 -6.019531 3.535156 -5.65625 3.453125 -5.1875 L 7.03125 -5.1875 C 6.9375 -5.65625 6.734375 -6.019531 6.421875 -6.28125 C 6.109375 -6.550781 5.710938 -6.6875 5.234375 -6.6875 Z M 5.234375 -6.6875 "/></g></g></g></g></g></g><g transform="matrix(1, 0, 0, 1, 83, 22)"><g clip-path="url(#ffe116fc79)"><g clip-path="url(#fcf05b72f5)"><g fill="#5e17eb" fill-opacity="1"><g transform="translate(0.271706, 3.391433)"><g><path d="M 0.875 -2.21875 L 0.015625 -2.21875 L 0.015625 -2.453125 L 2 -2.453125 L 2 -2.21875 L 1.140625 -2.21875 L 1.140625 0 L 0.875 0 Z M 0.875 -2.21875 "/></g></g></g></g><g clip-path="url(#cbb99b5c5b)"><g fill="#5e17eb" fill-opacity="1"><g transform="translate(3.23414, 3.391433)"><g><path d="M 2.125 -0.21875 L 2.125 0 L 0.40625 0 L 0.40625 -2.453125 L 2.078125 -2.453125 L 2.078125 -2.21875 L 0.65625 -2.21875 L 0.65625 -1.359375 L 1.921875 -1.359375 L 1.921875 -1.140625 L 0.65625 -1.140625 L 0.65625 -0.21875 Z M 2.125 -0.21875 "/></g></g></g></g><g clip-path="url(#f1a08944bf)"><g fill="#5e17eb" fill-opacity="1"><g transform="translate(6.528453, 3.391433)"><g><path d="M 1.46875 0.015625 C 1.21875 0.015625 0.992188 -0.0351562 0.796875 -0.140625 C 0.609375 -0.242188 0.457031 -0.390625 0.34375 -0.578125 C 0.238281 -0.773438 0.1875 -0.988281 0.1875 -1.21875 C 0.1875 -1.457031 0.238281 -1.671875 0.34375 -1.859375 C 0.457031 -2.054688 0.613281 -2.207031 0.8125 -2.3125 C 1.007812 -2.414062 1.226562 -2.46875 1.46875 -2.46875 C 1.644531 -2.46875 1.8125 -2.4375 1.96875 -2.375 C 2.125 -2.3125 2.253906 -2.222656 2.359375 -2.109375 L 2.203125 -1.953125 C 2.003906 -2.140625 1.757812 -2.234375 1.46875 -2.234375 C 1.28125 -2.234375 1.101562 -2.1875 0.9375 -2.09375 C 0.78125 -2.007812 0.65625 -1.890625 0.5625 -1.734375 C 0.476562 -1.585938 0.4375 -1.414062 0.4375 -1.21875 C 0.4375 -1.03125 0.476562 -0.859375 0.5625 -0.703125 C 0.65625 -0.546875 0.78125 -0.421875 0.9375 -0.328125 C 1.101562 -0.242188 1.28125 -0.203125 1.46875 -0.203125 C 1.769531 -0.203125 2.015625 -0.300781 2.203125 -0.5 L 2.359375 -0.34375 C 2.253906 -0.226562 2.125 -0.140625 1.96875 -0.078125 C 1.8125 -0.015625 1.644531 0.015625 1.46875 0.015625 Z M 1.46875 0.015625 "/></g></g></g></g><g clip-path="url(#9bfa1af4dd)"><g fill="#5e17eb" fill-opacity="1"><g transform="translate(9.99744, 3.391433)"><g><path d="M 2.453125 -2.453125 L 2.453125 0 L 2.1875 0 L 2.1875 -1.125 L 0.65625 -1.125 L 0.65625 0 L 0.40625 0 L 0.40625 -2.453125 L 0.65625 -2.453125 L 0.65625 -1.359375 L 2.1875 -1.359375 L 2.1875 -2.453125 Z M 2.453125 -2.453125 "/></g></g></g></g><g clip-path="url(#205ee85b2c)"><g fill="#5e17eb" fill-opacity="1"><g transform="translate(13.794809, 3.391433)"><g><path d="M 2.453125 -2.453125 L 2.453125 0 L 2.234375 0 L 0.65625 -1.984375 L 0.65625 0 L 0.40625 0 L 0.40625 -2.453125 L 0.609375 -2.453125 L 2.1875 -0.46875 L 2.1875 -2.453125 Z M 2.453125 -2.453125 "/></g></g></g></g><g clip-path="url(#bdc1dee597)"><g fill="#5e17eb" fill-opacity="1"><g transform="translate(17.592179, 3.391433)"><g><path d="M 1.46875 0.015625 C 1.226562 0.015625 1.007812 -0.0351562 0.8125 -0.140625 C 0.613281 -0.242188 0.457031 -0.390625 0.34375 -0.578125 C 0.238281 -0.773438 0.1875 -0.988281 0.1875 -1.21875 C 0.1875 -1.457031 0.238281 -1.671875 0.34375 -1.859375 C 0.457031 -2.046875 0.613281 -2.191406 0.8125 -2.296875 C 1.007812 -2.410156 1.226562 -2.46875 1.46875 -2.46875 C 1.707031 -2.46875 1.925781 -2.414062 2.125 -2.3125 C 2.320312 -2.207031 2.472656 -2.054688 2.578125 -1.859375 C 2.691406 -1.671875 2.75 -1.457031 2.75 -1.21875 C 2.75 -0.988281 2.691406 -0.773438 2.578125 -0.578125 C 2.472656 -0.390625 2.320312 -0.242188 2.125 -0.140625 C 1.925781 -0.0351562 1.707031 0.015625 1.46875 0.015625 Z M 1.46875 -0.203125 C 1.664062 -0.203125 1.84375 -0.242188 2 -0.328125 C 2.15625 -0.421875 2.273438 -0.546875 2.359375 -0.703125 C 2.453125 -0.859375 2.5 -1.03125 2.5 -1.21875 C 2.5 -1.414062 2.453125 -1.59375 2.359375 -1.75 C 2.273438 -1.90625 2.15625 -2.023438 2 -2.109375 C 1.84375 -2.191406 1.664062 -2.234375 1.46875 -2.234375 C 1.269531 -2.234375 1.09375 -2.191406 0.9375 -2.109375 C 0.78125 -2.023438 0.65625 -1.90625 0.5625 -1.75 C 0.476562 -1.59375 0.4375 -1.414062 0.4375 -1.21875 C 0.4375 -1.03125 0.476562 -0.859375 0.5625 -0.703125 C 0.65625 -0.546875 0.78125 -0.421875 0.9375 -0.328125 C 1.09375 -0.242188 1.269531 -0.203125 1.46875 -0.203125 Z M 1.46875 -0.203125 "/></g></g></g></g><g clip-path="url(#9c0e44e8fd)"><g fill="#5e17eb" fill-opacity="1"><g transform="translate(21.480376, 3.391433)"><g><path d="M 0.40625 -2.453125 L 0.65625 -2.453125 L 0.65625 -0.21875 L 2.03125 -0.21875 L 2.03125 0 L 0.40625 0 Z M 0.40625 -2.453125 "/></g></g></g></g><g clip-path="url(#48c77349be)"><g fill="#5e17eb" fill-opacity="1"><g transform="translate(24.495214, 3.391433)"><g><path d="M 1.46875 0.015625 C 1.226562 0.015625 1.007812 -0.0351562 0.8125 -0.140625 C 0.613281 -0.242188 0.457031 -0.390625 0.34375 -0.578125 C 0.238281 -0.773438 0.1875 -0.988281 0.1875 -1.21875 C 0.1875 -1.457031 0.238281 -1.671875 0.34375 -1.859375 C 0.457031 -2.046875 0.613281 -2.191406 0.8125 -2.296875 C 1.007812 -2.410156 1.226562 -2.46875 1.46875 -2.46875 C 1.707031 -2.46875 1.925781 -2.414062 2.125 -2.3125 C 2.320312 -2.207031 2.472656 -2.054688 2.578125 -1.859375 C 2.691406 -1.671875 2.75 -1.457031 2.75 -1.21875 C 2.75 -0.988281 2.691406 -0.773438 2.578125 -0.578125 C 2.472656 -0.390625 2.320312 -0.242188 2.125 -0.140625 C 1.925781 -0.0351562 1.707031 0.015625 1.46875 0.015625 Z M 1.46875 -0.203125 C 1.664062 -0.203125 1.84375 -0.242188 2 -0.328125 C 2.15625 -0.421875 2.273438 -0.546875 2.359375 -0.703125 C 2.453125 -0.859375 2.5 -1.03125 2.5 -1.21875 C 2.5 -1.414062 2.453125 -1.59375 2.359375 -1.75 C 2.273438 -1.90625 2.15625 -2.023438 2 -2.109375 C 1.84375 -2.191406 1.664062 -2.234375 1.46875 -2.234375 C 1.269531 -2.234375 1.09375 -2.191406 0.9375 -2.109375 C 0.78125 -2.023438 0.65625 -1.90625 0.5625 -1.75 C 0.476562 -1.59375 0.4375 -1.414062 0.4375 -1.21875 C 0.4375 -1.03125 0.476562 -0.859375 0.5625 -0.703125 C 0.65625 -0.546875 0.78125 -0.421875 0.9375 -0.328125 C 1.09375 -0.242188 1.269531 -0.203125 1.46875 -0.203125 Z M 1.46875 -0.203125 "/></g></g></g></g><g clip-path="url(#62bb0bac6e)"><g fill="#5e17eb" fill-opacity="1"><g transform="translate(28.383411, 3.391433)"><g><path d="M 2.125 -1.21875 L 2.375 -1.21875 L 2.375 -0.296875 C 2.257812 -0.191406 2.125 -0.113281 1.96875 -0.0625 C 1.8125 -0.0078125 1.644531 0.015625 1.46875 0.015625 C 1.226562 0.015625 1.007812 -0.0351562 0.8125 -0.140625 C 0.613281 -0.242188 0.457031 -0.390625 0.34375 -0.578125 C 0.238281 -0.773438 0.1875 -0.988281 0.1875 -1.21875 C 0.1875 -1.457031 0.238281 -1.671875 0.34375 -1.859375 C 0.457031 -2.054688 0.613281 -2.207031 0.8125 -2.3125 C 1.007812 -2.414062 1.234375 -2.46875 1.484375 -2.46875 C 1.660156 -2.46875 1.828125 -2.4375 1.984375 -2.375 C 2.140625 -2.320312 2.273438 -2.238281 2.390625 -2.125 L 2.21875 -1.953125 C 2.03125 -2.140625 1.785156 -2.234375 1.484375 -2.234375 C 1.285156 -2.234375 1.101562 -2.191406 0.9375 -2.109375 C 0.78125 -2.023438 0.65625 -1.90625 0.5625 -1.75 C 0.476562 -1.59375 0.4375 -1.414062 0.4375 -1.21875 C 0.4375 -1.03125 0.476562 -0.859375 0.5625 -0.703125 C 0.65625 -0.546875 0.78125 -0.421875 0.9375 -0.328125 C 1.101562 -0.242188 1.285156 -0.203125 1.484375 -0.203125 C 1.734375 -0.203125 1.945312 -0.269531 2.125 -0.40625 Z M 2.125 -1.21875 "/></g></g></g></g><g clip-path="url(#64d40de91d)"><g fill="#5e17eb" fill-opacity="1"><g transform="translate(32.041041, 3.391433)"><g><path d="M 1.234375 -0.84375 L 1.234375 0 L 0.984375 0 L 0.984375 -0.84375 L 0 -2.453125 L 0.28125 -2.453125 L 1.125 -1.078125 L 1.953125 -2.453125 L 2.21875 -2.453125 Z M 1.234375 -0.84375 "/></g></g></g></g></g></g></svg>