<?xml version="1.0" encoding="UTF-8"?>
<!DOCTYPE svg PUBLIC "-//W3C//DTD SVG 1.1//EN" "http://www.w3.org/Graphics/SVG/1.1/DTD/svg11.dtd">
<svg xmlns="http://www.w3.org/2000/svg" version="1.1" width="421px" height="112px" style="shape-rendering:geometricPrecision; text-rendering:geometricPrecision; image-rendering:optimizeQuality; fill-rule:evenodd; clip-rule:evenodd" xmlns:xlink="http://www.w3.org/1999/xlink">
<g><path style="opacity:1" fill="#1c18f7" d="M 52.5,21.5 C 52.8333,21.5 53.1667,21.5 53.5,21.5C 54.412,23.5952 55.5787,25.5952 57,27.5C 58.3461,34.3421 56.5127,40.0088 51.5,44.5C 42.3133,46.3003 36.98,42.6337 35.5,33.5C 37.2244,24.1289 42.891,20.1289 52.5,21.5 Z"/></g>
<g><path style="opacity:1" fill="#8b52fb" d="M 92.5,58.5 C 91.3197,61.5396 89.653,64.2063 87.5,66.5C 85.2413,69.3142 82.7413,71.9808 80,74.5C 80.0631,77.7672 78.5631,79.9339 75.5,81C 64.5528,83.0525 59.7194,78.5525 61,67.5C 63.845,63.1434 66.1783,58.4768 68,53.5C 71.9976,47.5272 75.9976,41.5272 80,35.5C 80.49,34.2068 80.6567,32.8734 80.5,31.5C 80.3284,30.5084 80.6618,29.8417 81.5,29.5C 83.701,26.9786 86.0343,24.4786 88.5,22C 101.848,20.3441 106.348,25.8441 102,38.5C 99.2171,42.6789 96.5505,47.0122 94,51.5C 93.338,53.8127 92.838,56.146 92.5,58.5 Z"/></g>
<g><path style="opacity:1" fill="#1b18f7" d="M 268.5,42.5 C 268.175,49.6866 268.509,56.6866 269.5,63.5C 269.5,64.8333 269.5,66.1667 269.5,67.5C 272.919,69.0867 276.585,69.7533 280.5,69.5C 280.5,71.1667 280.5,72.8333 280.5,74.5C 275.13,74.6079 269.797,74.2745 264.5,73.5C 263.877,70.9198 262.71,68.5865 261,66.5C 260.5,58.8406 260.334,51.1739 260.5,43.5C 259.5,43.5 258.5,43.5 257.5,43.5C 256.082,41.6921 254.082,41.0254 251.5,41.5C 251.5,39.1667 251.5,36.8333 251.5,34.5C 254.385,34.8064 257.052,34.4731 259.5,33.5C 260.479,30.3752 260.813,27.0419 260.5,23.5C 262.833,23.5 265.167,23.5 267.5,23.5C 265.345,34.3417 269.678,38.3417 280.5,35.5C 280.167,37.5 279.833,39.5 279.5,41.5C 275.629,41.185 271.962,41.5184 268.5,42.5 Z"/></g>
<g><path style="opacity:1" fill="#7c53d3" d="M 92.5,58.5 C 92.838,56.146 93.338,53.8127 94,51.5C 96.5505,47.0122 99.2171,42.6789 102,38.5C 106.348,25.8441 101.848,20.3441 88.5,22C 86.0343,24.4786 83.701,26.9786 81.5,29.5C 85.2792,19.4474 91.9458,16.9474 101.5,22C 106.188,26.3921 107.355,31.5587 105,37.5C 101.311,44.8939 97.1441,51.8939 92.5,58.5 Z"/></g>
<g><path style="opacity:1" fill="#2926b0" d="M 53.5,21.5 C 59.9539,26.7641 61.1205,33.0975 57,40.5C 55.549,42.4641 53.7157,43.7974 51.5,44.5C 56.5127,40.0088 58.3461,34.3421 57,27.5C 55.5787,25.5952 54.412,23.5952 53.5,21.5 Z"/></g>
<g><path style="opacity:0.42" fill="#322bad" d="M 52.5,21.5 C 42.891,20.1289 37.2244,24.1289 35.5,33.5C 36.98,42.6337 42.3133,46.3003 51.5,44.5C 41.0641,47.596 35.0641,43.596 33.5,32.5C 35.7241,21.2305 42.0575,17.5638 52.5,21.5 Z"/></g>
<g><path style="opacity:0.761" fill="#2c29b7" d="M 294.5,62.5 C 294.167,62.5 293.833,62.5 293.5,62.5C 293.599,53.4789 293.266,44.4789 292.5,35.5C 288.629,35.9396 284.962,35.9396 281.5,35.5C 285.258,33.8172 289.258,33.1505 293.5,33.5C 294.36,43.1391 294.693,52.8057 294.5,62.5 Z"/></g>
<g><path style="opacity:0.98" fill="#2823b1" d="M 161.5,45.5 C 162.167,42.1667 162.833,38.8333 163.5,35.5C 160.833,35.5 158.167,35.5 155.5,35.5C 152.716,43.887 149.382,51.887 145.5,59.5C 147.566,50.5297 150.899,42.0297 155.5,34C 159.211,33.1747 162.878,33.3414 166.5,34.5C 165.058,38.3761 163.391,42.0428 161.5,45.5 Z"/></g>
<g><path style="opacity:0.957" fill="#211fd9" d="M 269.5,32.5 C 273.768,32.8693 277.768,33.8693 281.5,35.5C 284.962,35.9396 288.629,35.9396 292.5,35.5C 293.266,44.4789 293.599,53.4789 293.5,62.5C 292.593,54.0009 291.926,45.3342 291.5,36.5C 289.533,36.2606 287.699,36.5939 286,37.5C 285.224,47.5847 285.724,57.5847 287.5,67.5C 285.933,66.3192 285.099,64.6526 285,62.5C 284.831,56.1406 284.331,49.8072 283.5,43.5C 282.893,43.6236 282.56,43.9569 282.5,44.5C 281.833,44.5 281.5,44.1667 281.5,43.5C 277.366,42.5151 273.032,42.1818 268.5,42.5C 271.962,41.5184 275.629,41.185 279.5,41.5C 279.833,39.5 280.167,37.5 280.5,35.5C 269.678,38.3417 265.345,34.3417 267.5,23.5C 265.167,23.5 262.833,23.5 260.5,23.5C 260.813,27.0419 260.479,30.3752 259.5,33.5C 259.5,29.8333 259.5,26.1667 259.5,22.5C 262.5,22.5 265.5,22.5 268.5,22.5C 268.187,26.0419 268.521,29.3752 269.5,32.5 Z"/></g>
<g><path style="opacity:0.278" fill="#2823ac" d="M 353.5,43.5 C 346.292,42.2678 341.292,44.9345 338.5,51.5C 339.44,43.9383 343.774,40.605 351.5,41.5C 351.5,39.5 351.5,37.5 351.5,35.5C 346.439,34.6652 342.105,35.9986 338.5,39.5C 337.893,39.3764 337.56,39.0431 337.5,38.5C 341.906,34.1091 347.239,32.4425 353.5,33.5C 353.5,36.8333 353.5,40.1667 353.5,43.5 Z"/></g>
<g><path style="opacity:1" fill="#2420d3" d="M 195.5,35.5 C 192.278,35.1497 189.112,34.4831 186,33.5C 181.672,33.6091 178.172,35.2758 175.5,38.5C 176.436,39.9744 177.77,40.9744 179.5,41.5C 180.386,40.675 180.719,39.675 180.5,38.5C 184.794,38.1816 188.794,39.0149 192.5,41C 193.212,43.8812 194.878,46.0478 197.5,47.5C 196.998,50.3388 195.331,51.6721 192.5,51.5C 186.532,50.6355 180.532,50.3021 174.5,50.5C 174.468,46.9659 174.802,43.7992 175.5,41C 172.593,40.2815 169.926,40.7815 167.5,42.5C 170.081,37.69 174.081,34.5233 179.5,33C 183.5,32.3333 187.5,32.3333 191.5,33C 193.32,33.2004 194.653,34.0337 195.5,35.5 Z M 194.5,48.5 C 188.463,48.8293 182.463,48.4959 176.5,47.5C 177.193,46.4822 177.859,45.4822 178.5,44.5C 181.931,42.6122 185.598,42.1122 189.5,43C 192.079,44.0757 193.746,45.909 194.5,48.5 Z"/></g>
<g><path style="opacity:0.784" fill="#2522ad" d="M 269.5,32.5 C 268.521,29.3752 268.187,26.0419 268.5,22.5C 265.5,22.5 262.5,22.5 259.5,22.5C 259.5,26.1667 259.5,29.8333 259.5,33.5C 257.052,34.4731 254.385,34.8064 251.5,34.5C 251.5,36.8333 251.5,39.1667 251.5,41.5C 254.082,41.0254 256.082,41.6921 257.5,43.5C 254.833,43.5 252.167,43.5 249.5,43.5C 250.57,54.1399 250.737,64.8066 250,75.5C 248.644,76.3802 247.144,76.7135 245.5,76.5C 245.415,75.0047 246.081,74.0047 247.5,73.5C 248.666,63.5166 248.832,53.5166 248,43.5C 246.413,41.3682 244.913,39.2015 243.5,37C 238.724,34.4585 233.724,32.9585 228.5,32.5C 236.726,31.2024 243.226,33.8691 248,40.5C 248.642,38.2381 249.475,36.0715 250.5,34C 253.146,33.5026 255.813,33.3359 258.5,33.5C 258.5,29.5 258.5,25.5 258.5,21.5C 262.167,21.5 265.833,21.5 269.5,21.5C 269.5,25.1667 269.5,28.8333 269.5,32.5 Z"/></g>
<g><path style="opacity:0.796" fill="#28249c" d="M 321.5,63.5 C 321.5,53.8333 321.5,44.1667 321.5,34.5C 318.552,34.2229 315.719,34.5562 313,35.5C 312.667,44.5 312.333,53.5 312,62.5C 311.252,64.751 309.752,66.0844 307.5,66.5C 308.836,64.9897 310.003,63.3231 311,61.5C 310.764,54.3684 310.597,47.2017 310.5,40C 310.796,38.1118 311.296,36.2784 312,34.5C 315.394,33.5442 318.894,33.2108 322.5,33.5C 322.827,43.6806 322.494,53.6806 321.5,63.5 Z"/></g>
<g><path style="opacity:0.627" fill="#322fbc" d="M 337.5,38.5 C 336.596,37.791 336.263,36.791 336.5,35.5C 334.5,35.5 332.5,35.5 330.5,35.5C 328.698,42.0952 327.865,49.0952 328,56.5C 327.617,55.944 327.117,55.6107 326.5,55.5C 326.317,48.1319 326.65,40.7985 327.5,33.5C 330.833,33.5 334.167,33.5 337.5,33.5C 337.5,35.1667 337.5,36.8333 337.5,38.5 Z"/></g>
<g><path style="opacity:1" fill="#1c18f7" d="M 330.5,35.5 C 332.5,35.5 334.5,35.5 336.5,35.5C 336.263,36.791 336.596,37.791 337.5,38.5C 337.56,39.0431 337.893,39.3764 338.5,39.5C 342.105,35.9986 346.439,34.6652 351.5,35.5C 351.5,37.5 351.5,39.5 351.5,41.5C 343.774,40.605 339.44,43.9383 338.5,51.5C 338.167,51.5 337.833,51.5 337.5,51.5C 336.672,57.9874 336.172,64.654 336,71.5C 334.246,73.25 332.079,73.9167 329.5,73.5C 329.187,60.7536 329.52,48.087 330.5,35.5 Z"/></g>
<g><path style="opacity:1" fill="#2420d0" d="M 330.5,35.5 C 329.52,48.087 329.187,60.7536 329.5,73.5C 332.079,73.9167 334.246,73.25 336,71.5C 336.172,64.654 336.672,57.9874 337.5,51.5C 337.5,59.1667 337.5,66.8333 337.5,74.5C 335.821,74.2852 334.821,74.9519 334.5,76.5C 332.167,76.5 329.833,76.5 327.5,76.5C 327.76,69.443 327.427,62.443 326.5,55.5C 327.117,55.6107 327.617,55.944 328,56.5C 327.865,49.0952 328.698,42.0952 330.5,35.5 Z"/></g>
<g><path style="opacity:0.48" fill="#2c2caf" d="M 268.5,42.5 C 273.032,42.1818 277.366,42.5151 281.5,43.5C 277.5,43.5 273.5,43.5 269.5,43.5C 269.5,50.1667 269.5,56.8333 269.5,63.5C 268.509,56.6866 268.175,49.6866 268.5,42.5 Z"/></g>
<g><path style="opacity:1" fill="#1f1dea" d="M 389.5,40.5 C 386.525,38.1761 383.192,37.3427 379.5,38C 382.668,38.5823 383.001,39.5823 380.5,41C 384.153,43.6267 385.153,46.9601 383.5,51C 375.815,51.5969 368.148,51.4302 360.5,50.5C 360.443,45.3183 359.776,45.3183 358.5,50.5C 357.476,49.1468 356.143,48.4802 354.5,48.5C 354.334,52.5138 354.501,56.5138 355,60.5C 355.903,61.7014 357.069,62.5348 358.5,63C 357.587,64.4139 357.587,65.9139 358.5,67.5C 356.668,66.7515 355.001,65.7515 353.5,64.5C 353.5,64.1667 353.5,63.8333 353.5,63.5C 353.334,58.1563 353.501,52.8229 354,47.5C 355.887,45.9739 356.887,43.9739 357,41.5C 360.691,38.9115 364.191,36.2448 367.5,33.5C 375.167,31.2373 382.167,32.7373 388.5,38C 389.252,38.6708 389.586,39.5041 389.5,40.5 Z M 377.5,42.5 C 379.27,43.764 380.937,45.264 382.5,47C 381.335,48.0836 380.002,48.9169 378.5,49.5C 374.635,48.1939 370.802,48.1939 367,49.5C 366.005,48.9341 365.172,48.2674 364.5,47.5C 367.626,43.0423 371.959,41.3756 377.5,42.5 Z"/></g>
<g><path style="opacity:0.024" fill="#2728b3" d="M 377.5,42.5 C 371.959,41.3756 367.626,43.0423 364.5,47.5C 362.895,48.9687 362.395,48.6354 363,46.5C 366.231,41.4656 370.731,39.6323 376.5,41C 377.056,41.3826 377.389,41.8826 377.5,42.5 Z"/></g>
<g><path style="opacity:0.851" fill="#2b27b8" d="M 227.5,33.5 C 225.475,35.0751 223.475,36.9084 221.5,39C 220.552,39.4828 219.552,39.6495 218.5,39.5C 218.67,38.1779 218.337,37.0113 217.5,36C 215.19,35.5034 212.857,35.3367 210.5,35.5C 210.318,37.5914 210.652,39.5914 211.5,41.5C 210.787,43.7759 210.287,46.1093 210,48.5C 209.583,49.756 208.75,50.4226 207.5,50.5C 208.235,45.2154 208.735,39.882 209,34.5C 212.394,33.5442 215.894,33.2108 219.5,33.5C 219.34,35.1992 219.506,36.8659 220,38.5C 221.708,35.7239 224.208,34.0572 227.5,33.5 Z"/></g>
<g><path style="opacity:1" fill="#2421cf" d="M 321.5,63.5 C 321.206,66.7541 319.873,69.4208 317.5,71.5C 320.22,59.7172 321.22,47.7172 320.5,35.5C 318.208,35.2436 316.041,35.5769 314,36.5C 314.529,44.4606 314.529,52.4606 314,60.5C 313.64,62.6079 312.973,64.6079 312,66.5C 307.252,67.6349 302.419,67.8015 297.5,67C 295.859,65.871 294.859,64.371 294.5,62.5C 297.984,66.132 302.317,67.4653 307.5,66.5C 309.752,66.0844 311.252,64.751 312,62.5C 312.333,53.5 312.667,44.5 313,35.5C 315.719,34.5562 318.552,34.2229 321.5,34.5C 321.5,44.1667 321.5,53.8333 321.5,63.5 Z"/></g>
<g><path style="opacity:0.035" fill="#1e1993" d="M 164.5,48.5 C 164.781,53.7091 164.781,58.7091 164.5,63.5C 163.089,60.5249 162.423,57.3583 162.5,54C 162.547,51.7047 163.213,49.8714 164.5,48.5 Z"/></g>
<g><path style="opacity:1" fill="#1b18f8" d="M 389.5,40.5 C 391.243,45.1708 392.243,50.1708 392.5,55.5C 382.167,55.5 371.833,55.5 361.5,55.5C 361.216,57.4147 361.549,59.0813 362.5,60.5C 362.34,62.1992 362.506,63.8659 363,65.5C 365.083,67.8654 367.25,70.1987 369.5,72.5C 367.579,73.641 365.579,73.8077 363.5,73C 362.157,70.7678 360.49,68.9345 358.5,67.5C 357.587,65.9139 357.587,64.4139 358.5,63C 357.069,62.5348 355.903,61.7014 355,60.5C 354.501,56.5138 354.334,52.5138 354.5,48.5C 356.143,48.4802 357.476,49.1468 358.5,50.5C 359.776,45.3183 360.443,45.3183 360.5,50.5C 368.148,51.4302 375.815,51.5969 383.5,51C 385.153,46.9601 384.153,43.6267 380.5,41C 383.001,39.5823 382.668,38.5823 379.5,38C 383.192,37.3427 386.525,38.1761 389.5,40.5 Z"/></g>
<g><path style="opacity:0.345" fill="#2924b1" d="M 135.5,36.5 C 132.096,34.3455 128.43,34.0122 124.5,35.5C 128.501,46.5058 133.335,57.1725 139,67.5C 139.662,69.8127 140.162,72.146 140.5,74.5C 143.572,74.8174 146.572,74.4841 149.5,73.5C 149.942,72.2613 150.609,71.2613 151.5,70.5C 151.528,72.5824 150.861,74.4157 149.5,76C 143.678,77.6621 139.344,75.9955 136.5,71C 134.197,62.4911 131.031,53.9911 127,45.5C 125.516,41.5532 124.35,37.5532 123.5,33.5C 127.182,33.3347 130.848,33.5014 134.5,34C 135.252,34.6708 135.586,35.5041 135.5,36.5 Z"/></g>
<g><path style="opacity:0.714" fill="#231ec5" d="M 161.5,45.5 C 158.963,54.2284 155.629,62.5618 151.5,70.5C 151.991,62.5408 154.157,55.2074 158,48.5C 159.039,47.2899 160.206,46.2899 161.5,45.5 Z"/></g>
<g><path style="opacity:0.855" fill="#211ec2" d="M 196.5,35.5 C 202.543,39.2082 206.21,44.5415 207.5,51.5C 209.411,51.5743 210.578,52.5743 211,54.5C 211.5,60.8246 211.666,67.1579 211.5,73.5C 214.211,73.8151 216.544,73.1484 218.5,71.5C 218.5,72.8333 218.5,74.1667 218.5,75.5C 215.813,75.6641 213.146,75.4974 210.5,75C 209.901,73.3775 209.234,71.8775 208.5,70.5C 209.146,66.2603 208.813,61.927 207.5,57.5C 196.546,58.3115 185.546,58.8115 174.5,59C 176.184,63.1918 179.184,65.6918 183.5,66.5C 182.791,67.404 181.791,67.7373 180.5,67.5C 178.958,66.6993 177.292,66.366 175.5,66.5C 173.983,63.4127 173.316,60.0794 173.5,56.5C 183.833,56.5 194.167,56.5 204.5,56.5C 204.416,52.2447 203.749,48.078 202.5,44C 199.643,41.7903 197.643,38.957 196.5,35.5 Z"/></g>
<g><path style="opacity:1" fill="#2420c2" d="M 257.5,43.5 C 258.5,43.5 259.5,43.5 260.5,43.5C 260.334,51.1739 260.5,58.8406 261,66.5C 262.71,68.5865 263.877,70.9198 264.5,73.5C 261.745,72.0388 259.912,69.7054 259,66.5C 258.692,58.8084 258.192,51.1417 257.5,43.5 Z"/></g>
<g><path style="opacity:0.852" fill="#1a1bc5" d="M 389.5,40.5 C 391.873,42.5792 393.206,45.2459 393.5,48.5C 393.5,51.5 393.5,54.5 393.5,57.5C 387.974,57.1786 382.64,57.5119 377.5,58.5C 372.056,57.8917 367.056,58.5583 362.5,60.5C 361.549,59.0813 361.216,57.4147 361.5,55.5C 371.833,55.5 382.167,55.5 392.5,55.5C 392.243,50.1708 391.243,45.1708 389.5,40.5 Z"/></g>
<g><path style="opacity:1" fill="#1b19f6" d="M 195.5,35.5 C 195.833,35.5 196.167,35.5 196.5,35.5C 197.643,38.957 199.643,41.7903 202.5,44C 203.749,48.078 204.416,52.2447 204.5,56.5C 194.167,56.5 183.833,56.5 173.5,56.5C 173.316,60.0794 173.983,63.4127 175.5,66.5C 177.292,66.366 178.958,66.6993 180.5,67.5C 181.953,69.229 183.953,70.229 186.5,70.5C 189.835,69.5427 193.002,68.2093 196,66.5C 196.772,66.6448 197.439,66.9781 198,67.5C 197.092,69.0876 195.925,70.7543 194.5,72.5C 191.225,73.4442 187.892,74.1108 184.5,74.5C 180.703,72.8479 176.703,71.6812 172.5,71C 171.958,68.7452 170.791,66.9119 169,65.5C 168.257,63.5594 168.424,61.7261 169.5,60C 168.975,59.3076 168.308,58.8076 167.5,58.5C 166.388,53.1715 166.388,47.8381 167.5,42.5C 169.926,40.7815 172.593,40.2815 175.5,41C 174.802,43.7992 174.468,46.9659 174.5,50.5C 180.532,50.3021 186.532,50.6355 192.5,51.5C 195.331,51.6721 196.998,50.3388 197.5,47.5C 194.878,46.0478 193.212,43.8812 192.5,41C 188.794,39.0149 184.794,38.1816 180.5,38.5C 180.719,39.675 180.386,40.675 179.5,41.5C 177.77,40.9744 176.436,39.9744 175.5,38.5C 178.172,35.2758 181.672,33.6091 186,33.5C 189.112,34.4831 192.278,35.1497 195.5,35.5 Z M 194.5,48.5 C 188.463,48.8293 182.463,48.4959 176.5,47.5C 177.193,46.4822 177.859,45.4822 178.5,44.5C 181.931,42.6122 185.598,42.1122 189.5,43C 192.079,44.0757 193.746,45.909 194.5,48.5 Z"/></g>
<g><path style="opacity:0.016" fill="#423fb5" d="M 178.5,44.5 C 177.859,45.4822 177.193,46.4822 176.5,47.5C 182.463,48.4959 188.463,48.8293 194.5,48.5C 188.927,49.4995 182.594,49.8328 175.5,49.5C 175.5,47.8333 175.5,46.1667 175.5,44.5C 176.5,44.5 177.5,44.5 178.5,44.5 Z"/></g>
<g><path style="opacity:0.961" fill="#2220b8" d="M 367.5,33.5 C 364.191,36.2448 360.691,38.9115 357,41.5C 356.887,43.9739 355.887,45.9739 354,47.5C 353.501,52.8229 353.334,58.1563 353.5,63.5C 351.885,60.8307 350.885,57.8307 350.5,54.5C 351.125,50.6983 352.125,47.0316 353.5,43.5C 356.775,38.2265 361.441,34.8931 367.5,33.5 Z"/></g>
<g><path style="opacity:0.024" fill="#2b2b9c" d="M 393.5,48.5 C 394.479,51.6248 394.813,54.9581 394.5,58.5C 388.833,58.5 383.167,58.5 377.5,58.5C 382.64,57.5119 387.974,57.1786 393.5,57.5C 393.5,54.5 393.5,51.5 393.5,48.5 Z"/></g>
<g><path style="opacity:1" fill="#1c19f4" d="M 135.5,36.5 C 135.338,38.5273 135.505,40.5273 136,42.5C 138.796,48.3897 141.296,54.3897 143.5,60.5C 144.257,61.7733 144.923,61.7733 145.5,60.5C 145.5,60.1667 145.5,59.8333 145.5,59.5C 149.382,51.887 152.716,43.887 155.5,35.5C 158.167,35.5 160.833,35.5 163.5,35.5C 162.833,38.8333 162.167,42.1667 161.5,45.5C 160.206,46.2899 159.039,47.2899 158,48.5C 154.157,55.2074 151.991,62.5408 151.5,70.5C 150.609,71.2613 149.942,72.2613 149.5,73.5C 146.572,74.4841 143.572,74.8174 140.5,74.5C 140.162,72.146 139.662,69.8127 139,67.5C 133.335,57.1725 128.501,46.5058 124.5,35.5C 128.43,34.0122 132.096,34.3455 135.5,36.5 Z"/></g>
<g><path style="opacity:0.918" fill="#2622b9" d="M 135.5,36.5 C 138.833,44.5 142.167,52.5 145.5,60.5C 144.923,61.7733 144.257,61.7733 143.5,60.5C 141.296,54.3897 138.796,48.3897 136,42.5C 135.505,40.5273 135.338,38.5273 135.5,36.5 Z"/></g>
<g><path style="opacity:0.976" fill="#2722b4" d="M 195.5,74.5 C 196.234,73.2921 196.567,71.9587 196.5,70.5C 197.5,70.5 198.5,70.5 199.5,70.5C 199.5,69.5 199.5,68.5 199.5,67.5C 201.59,67.5499 202.923,66.5499 203.5,64.5C 198.827,62.6219 194.827,63.4552 191.5,67C 189.613,67.7796 187.946,67.6129 186.5,66.5C 189.967,66.5543 192.634,65.0543 194.5,62C 198.152,61.5014 201.818,61.3347 205.5,61.5C 205.365,65.4383 203.865,68.7717 201,71.5C 199.259,72.7577 197.426,73.7577 195.5,74.5 Z"/></g>
<g><path style="opacity:0.669" fill="#3535b9" d="M 232.5,43.5 C 235.102,42.0313 237.269,42.698 239,45.5C 240.365,55.4434 240.865,65.4434 240.5,75.5C 242.099,75.2322 243.432,75.5655 244.5,76.5C 242.234,76.8588 240.401,76.1922 239,74.5C 238.667,65.8333 238.333,57.1667 238,48.5C 237.536,45.3482 235.703,43.6815 232.5,43.5 Z"/></g>
<g><path style="opacity:1" fill="#1c18f6" d="M 228.5,32.5 C 233.724,32.9585 238.724,34.4585 243.5,37C 244.913,39.2015 246.413,41.3682 248,43.5C 248.832,53.5166 248.666,63.5166 247.5,73.5C 246.081,74.0047 245.415,75.0047 245.5,76.5C 245.167,76.5 244.833,76.5 244.5,76.5C 243.432,75.5655 242.099,75.2322 240.5,75.5C 240.865,65.4434 240.365,55.4434 239,45.5C 237.269,42.698 235.102,42.0313 232.5,43.5C 231.833,43.5 231.5,43.1667 231.5,42.5C 229.307,41.2031 226.973,41.2031 224.5,42.5C 219.34,46.9749 217.34,52.6416 218.5,59.5C 218.667,62.5 218.833,65.5 219,68.5C 219.383,67.944 219.883,67.6107 220.5,67.5C 220.5,68.5 220.5,69.5 220.5,70.5C 219.508,70.3284 218.842,70.6618 218.5,71.5C 216.544,73.1484 214.211,73.8151 211.5,73.5C 211.666,67.1579 211.5,60.8246 211,54.5C 210.578,52.5743 209.411,51.5743 207.5,51.5C 207.5,51.1667 207.5,50.8333 207.5,50.5C 208.75,50.4226 209.583,49.756 210,48.5C 210.287,46.1093 210.787,43.7759 211.5,41.5C 210.652,39.5914 210.318,37.5914 210.5,35.5C 212.857,35.3367 215.19,35.5034 217.5,36C 218.337,37.0113 218.67,38.1779 218.5,39.5C 219.552,39.6495 220.552,39.4828 221.5,39C 223.475,36.9084 225.475,35.0751 227.5,33.5C 227.5,32.8333 227.833,32.5 228.5,32.5 Z"/></g>
<g><path style="opacity:0.349" fill="#2e2ab2" d="M 231.5,42.5 C 226.543,42.6195 223.043,44.9528 221,49.5C 220.501,55.4908 220.334,61.4908 220.5,67.5C 219.883,67.6107 219.383,67.944 219,68.5C 218.833,65.5 218.667,62.5 218.5,59.5C 217.34,52.6416 219.34,46.9749 224.5,42.5C 226.973,41.2031 229.307,41.2031 231.5,42.5 Z"/></g>
<g><path style="opacity:1" fill="#1e1be3" d="M 167.5,42.5 C 166.388,47.8381 166.388,53.1715 167.5,58.5C 168.308,58.8076 168.975,59.3076 169.5,60C 168.424,61.7261 168.257,63.5594 169,65.5C 170.791,66.9119 171.958,68.7452 172.5,71C 176.703,71.6812 180.703,72.8479 184.5,74.5C 187.892,74.1108 191.225,73.4442 194.5,72.5C 195.925,70.7543 197.092,69.0876 198,67.5C 197.439,66.9781 196.772,66.6448 196,66.5C 193.002,68.2093 189.835,69.5427 186.5,70.5C 183.953,70.229 181.953,69.229 180.5,67.5C 181.791,67.7373 182.791,67.404 183.5,66.5C 184.5,66.5 185.5,66.5 186.5,66.5C 187.946,67.6129 189.613,67.7796 191.5,67C 194.827,63.4552 198.827,62.6219 203.5,64.5C 202.923,66.5499 201.59,67.5499 199.5,67.5C 199.5,68.5 199.5,69.5 199.5,70.5C 198.5,70.5 197.5,70.5 196.5,70.5C 196.567,71.9587 196.234,73.2921 195.5,74.5C 190.636,76.0408 185.636,76.7075 180.5,76.5C 172.848,75.0088 167.514,70.6755 164.5,63.5C 164.781,58.7091 164.781,53.7091 164.5,48.5C 164.461,45.911 165.461,43.911 167.5,42.5 Z"/></g>
<g><path style="opacity:0.151" fill="#1d1b8f" d="M 337.5,51.5 C 337.833,51.5 338.167,51.5 338.5,51.5C 338.666,59.5069 338.5,67.5069 338,75.5C 336.989,76.3366 335.822,76.67 334.5,76.5C 334.821,74.9519 335.821,74.2852 337.5,74.5C 337.5,66.8333 337.5,59.1667 337.5,51.5 Z"/></g>
<g><path style="opacity:1" fill="#1c18f7" d="M 317.5,71.5 C 314.802,71.9076 312.469,73.0743 310.5,75C 304.442,75.7392 298.442,75.4059 292.5,74C 290.21,72.2228 288.543,70.0562 287.5,67.5C 285.724,57.5847 285.224,47.5847 286,37.5C 287.699,36.5939 289.533,36.2606 291.5,36.5C 291.926,45.3342 292.593,54.0009 293.5,62.5C 293.833,62.5 294.167,62.5 294.5,62.5C 294.859,64.371 295.859,65.871 297.5,67C 302.419,67.8015 307.252,67.6349 312,66.5C 312.973,64.6079 313.64,62.6079 314,60.5C 314.529,52.4606 314.529,44.4606 314,36.5C 316.041,35.5769 318.208,35.2436 320.5,35.5C 321.22,47.7172 320.22,59.7172 317.5,71.5 Z"/></g>
<g><path style="opacity:1" fill="#231fd1" d="M 362.5,60.5 C 368.614,68.9331 375.28,69.4331 382.5,62C 386.152,61.5014 389.818,61.3347 393.5,61.5C 390.735,71.5892 384.068,76.9225 373.5,77.5C 364.376,77.2539 357.709,72.9205 353.5,64.5C 355.001,65.7515 356.668,66.7515 358.5,67.5C 360.49,68.9345 362.157,70.7678 363.5,73C 365.579,73.8077 367.579,73.641 369.5,72.5C 367.25,70.1987 365.083,67.8654 363,65.5C 362.506,63.8659 362.34,62.1992 362.5,60.5 Z"/></g>
<g><path style="opacity:1" fill="#1b19f6" d="M 382.5,63.5 C 385.167,63.5 387.833,63.5 390.5,63.5C 390.357,67.973 388.023,69.973 383.5,69.5C 383.5,70.8333 383.5,72.1667 383.5,73.5C 379.493,74.6125 375.493,74.6125 371.5,73.5C 372.919,70.5821 375.252,69.0821 378.5,69C 379.721,66.9663 381.055,65.133 382.5,63.5 Z"/></g>
<g><path style="opacity:0.922" fill="#1e1ab1" d="M 269.5,63.5 C 270.309,64.4687 271.309,65.3021 272.5,66C 275.553,66.1786 278.553,66.6786 281.5,67.5C 281.742,70.319 281.742,73.319 281.5,76.5C 277.154,76.6657 272.821,76.499 268.5,76C 266.68,75.7996 265.347,74.9663 264.5,73.5C 269.797,74.2745 275.13,74.6079 280.5,74.5C 280.5,72.8333 280.5,71.1667 280.5,69.5C 276.585,69.7533 272.919,69.0867 269.5,67.5C 269.5,66.1667 269.5,64.8333 269.5,63.5 Z"/></g>
<g><path style="opacity:0.027" fill="#2e228f" d="M 208.5,70.5 C 209.234,71.8775 209.901,73.3775 210.5,75C 213.146,75.4974 215.813,75.6641 218.5,75.5C 218.5,74.1667 218.5,72.8333 218.5,71.5C 218.842,70.6618 219.508,70.3284 220.5,70.5C 221.178,75.1312 219.178,77.1312 214.5,76.5C 209.492,77.4921 207.492,75.4921 208.5,70.5 Z"/></g>
<g><path style="opacity:0.967" fill="#2623b9" d="M 287.5,67.5 C 288.543,70.0562 290.21,72.2228 292.5,74C 298.442,75.4059 304.442,75.7392 310.5,75C 312.469,73.0743 314.802,71.9076 317.5,71.5C 311.996,77.0371 305.329,78.8705 297.5,77C 290.843,75.0143 286.01,70.8476 283,64.5C 282.5,57.8417 282.334,51.175 282.5,44.5C 282.56,43.9569 282.893,43.6236 283.5,43.5C 284.331,49.8072 284.831,56.1406 285,62.5C 285.099,64.6526 285.933,66.3192 287.5,67.5 Z"/></g>
<g><path style="opacity:0.188" fill="#2b2c9e" d="M 195.5,74.5 C 194.158,75.793 192.491,76.6264 190.5,77C 186.973,77.8075 183.64,77.6408 180.5,76.5C 185.636,76.7075 190.636,76.0408 195.5,74.5 Z"/></g>
<g><path style="opacity:0.839" fill="#7b52ce" d="M 80.5,31.5 C 80.6567,32.8734 80.49,34.2068 80,35.5C 75.9976,41.5272 71.9976,47.5272 68,53.5C 66.1783,58.4768 63.845,63.1434 61,67.5C 59.7194,78.5525 64.5528,83.0525 75.5,81C 78.5631,79.9339 80.0631,77.7672 80,74.5C 82.7413,71.9808 85.2413,69.3142 87.5,66.5C 85.1968,71.7699 82.3635,76.7699 79,81.5C 69.2741,87.1306 62.2741,84.7973 58,74.5C 57.1593,70.8798 57.826,67.5464 60,64.5C 66.3574,53.1003 73.1908,42.1003 80.5,31.5 Z"/></g>
</svg>
